<?xml version="1.0" encoding="utf-8"?>
<!-- Generator: Adobe Illustrator 26.0.1, SVG Export Plug-In . SVG Version: 6.00 Build 0)  -->
<svg version="1.1" id="Layer_1" xmlns="http://www.w3.org/2000/svg" xmlns:xlink="http://www.w3.org/1999/xlink" x="0px" y="0px"
	 viewBox="0 0 60 60" style="enable-background:new 0 0 60 60;" xml:space="preserve">
<path d="M20,37c2,0,3.8-0.6,5.3-1.3C24.6,37.2,24,39,24,41c0,5.9,5.1,10.5,5.3,10.7c0.2,0.2,0.4,0.3,0.7,0.3s0.5-0.1,0.7-0.3
	C30.9,51.5,36,46.9,36,41c0-2-0.6-3.8-1.3-5.3C36.2,36.4,38,37,40,37c5.9,0,10.5-5.1,10.7-5.3c0.3-0.4,0.3-1,0-1.3
	C50.5,30.1,45.9,25,40,25c-4.6,0-8.4,3.1-10,4.6c-1.6-1.5-5.4-4.6-10-4.6c-5.9,0-10.6,5.1-10.7,5.3c-0.3,0.4-0.3,1,0,1.3
	C9.4,31.9,14.1,37,20,37z M30,49.6c-1.3-1.4-4-4.8-4-8.6s2.7-7.2,4-8.6c1.3,1.4,4,4.8,4,8.6S31.3,48.2,30,49.6z M40,27
	c3.8,0,7.2,2.7,8.6,4c-1.4,1.3-4.7,4-8.6,4c-3.8,0-7.2-2.7-8.6-4C32.8,29.7,36.2,27,40,27z M20,27c3.8,0,7.2,2.7,8.6,4c0,0,0,0,0,0
	c-1.4,1.3-4.7,4-8.6,4c-3.8,0-7.2-2.7-8.6-4C12.8,29.7,16.2,27,20,27z M17.3,17.3c-0.3,0.4-0.3,1,0,1.3C17.5,18.9,23,25,30,25
	s12.5-6.1,12.7-6.3c0.3-0.4,0.3-1,0-1.3c-0.1-0.1-1-1.1-2.4-2.2l2.4-2.4c0.4-0.4,0.4-1,0-1.4s-1-0.4-1.4,0l-2.6,2.6
	c-0.7-0.5-1.5-0.9-2.3-1.3l1.6-3.1c0.2-0.5,0-1.1-0.4-1.3c-0.5-0.2-1.1,0-1.3,0.4l-1.6,3.3c-1.1-0.4-2.3-0.7-3.5-0.8V7
	c0-0.6-0.4-1-1-1s-1,0.4-1,1v4.1c-1.2,0.1-2.4,0.4-3.5,0.8l-1.6-3.3c-0.2-0.5-0.8-0.7-1.3-0.4c-0.5,0.2-0.7,0.8-0.4,1.3l1.6,3.1
	c-0.8,0.4-1.6,0.9-2.3,1.3l-2.6-2.6c-0.4-0.4-1-0.4-1.4,0s-0.4,1,0,1.4l2.4,2.4C18.2,16.3,17.3,17.2,17.3,17.3z M30,13
	c4.8,0,9,3.5,10.6,5c-1.6,1.5-5.8,5-10.6,5s-9-3.5-10.6-5C21,16.5,25.2,13,30,13z"/>
<circle cx="30" cy="18" r="2"/>
</svg>
