<svg xmlns="http://www.w3.org/2000/svg" width="512" height="512" enable-background="new 0 0 512 512" viewBox="0 0 512 512"><circle cx="256" cy="262.519" r="22.137" fill="none" stroke="#010101" stroke-linecap="round" stroke-linejoin="round" stroke-miterlimit="10" stroke-width="5"/><circle cx="256" cy="262.519" r="43.332" fill="none" stroke="#010101" stroke-linecap="round" stroke-linejoin="round" stroke-miterlimit="10" stroke-width="5"/><path fill="none" stroke="#010101" stroke-linecap="round" stroke-linejoin="round" stroke-miterlimit="10" stroke-width="5" d="M229.737 190.352c-2.77-15.242-4.352-33.074-4.352-52.14 0-56.06 13.706-101.502 30.615-101.502s30.615 45.442 30.615 101.502c0 19.066-1.582 36.898-4.352 52.14M189.466 224.114l-.01-.009c-11.897-9.901-24.567-22.533-36.814-37.134-36.032-42.937-54.739-86.562-41.787-97.432 12.953-10.871 52.658 15.138 88.689 58.075 12.256 14.61 22.515 29.297 30.192 42.739"/><path fill="none" stroke="#010101" stroke-linecap="round" stroke-linejoin="round" stroke-miterlimit="10" stroke-width="5" d="   M180.338,275.858c0,0,0,0-0.009,0c-15.477,0.075-33.301-1.47-52.065-4.776c-55.202-9.73-97.583-31.124-94.644-47.778   c2.939-16.646,50.068-22.25,105.279-12.52c18.756,3.306,36.032,7.96,50.558,13.32l0.01,0.009"/><path fill="none" stroke="#010101" stroke-linecap="round" stroke-linejoin="round" stroke-miterlimit="10" stroke-width="5" d="   M206.629,321.367c-0.009,0-0.009,0-0.009,0.01c-11.813,10.003-26.461,20.281-42.965,29.814   c-48.551,28.024-94.757,38.877-103.216,24.238c-8.45-14.649,24.05-49.239,72.601-77.273c16.494-9.524,32.726-17.061,47.289-22.298   c0.009,0,0.009,0,0.009,0"/><path fill="none" stroke="#010101" stroke-linecap="round" stroke-linejoin="round" stroke-miterlimit="10" stroke-width="5" d="   M206.629,321.367c-0.009,0-0.009,0-0.009,0.01c-7.8,13.366-15.383,29.578-21.901,47.486c-19.18,52.677-21.836,100.07-5.954,105.845   c15.892,5.783,44.313-32.227,63.492-84.903c6.519-17.918,11.125-35.222,13.744-50.482"/><path fill="none" stroke="#010101" stroke-linecap="round" stroke-linejoin="round" stroke-miterlimit="10" stroke-width="5" d="   M256,339.322c2.619,15.261,7.226,32.564,13.744,50.482c19.18,52.677,47.6,90.687,63.491,84.903   c15.882-5.784,13.227-53.168-5.953-105.845c-6.519-17.908-14.102-34.12-21.911-47.496c-0.01-0.01-0.01-0.01-0.01-0.01"/><path fill="none" stroke="#010101" stroke-linecap="round" stroke-linejoin="round" stroke-miterlimit="10" stroke-width="5" d="   M305.362,321.357c0,0,0,0,0.01,0.01c11.813,10.004,26.47,20.291,42.975,29.824c48.551,28.024,94.757,38.877,103.216,24.238   c8.45-14.649-24.049-49.239-72.601-77.273c-16.505-9.524-32.734-17.069-47.309-22.307h-0.009"/><path fill="none" stroke="#010101" stroke-linecap="round" stroke-linejoin="round" stroke-miterlimit="10" stroke-width="5" d="   M322.534,224.114l0.009-0.009c14.526-5.36,31.804-10.014,50.559-13.32c55.211-9.731,102.34-4.126,105.279,12.52   c2.939,16.654-39.442,38.047-94.645,47.778c-18.765,3.307-36.605,4.843-52.084,4.768h-0.009"/><path fill="none" stroke="#010101" stroke-linecap="round" stroke-linejoin="round" stroke-miterlimit="10" stroke-width="5" d="   M282.264,190.352c7.678-13.442,17.936-28.129,30.19-42.739c36.032-42.937,75.738-68.946,88.691-58.075   c12.952,10.871-5.756,54.496-41.788,97.432c-12.246,14.601-24.917,27.233-36.814,37.134l-0.009,0.009"/></svg>